<svg xmlns="http://www.w3.org/2000/svg" version="1.1" xmlns:xlink="http://www.w3.org/1999/xlink" xmlns:svgjs="http://svgjs.com/svgjs" width="1440" height="560" preserveAspectRatio="none" viewBox="0 0 1440 560"><g mask="url(&quot;#SvgjsMask1030&quot;)" fill="none"><rect width="1440" height="560" x="0" y="0" fill="url(#SvgjsLinearGradient1031)"></rect><path d="M1440 0L1266.76 0L1440 157.78z" fill="rgba(255, 255, 255, .1)"></path><path d="M1266.76 0L1440 157.78L1440 338.99L614.24 0z" fill="rgba(255, 255, 255, .075)"></path><path d="M614.24 0L1440 338.99L1440 373.96000000000004L386.92 0z" fill="rgba(255, 255, 255, .05)"></path><path d="M386.9200000000001 0L1440 373.96000000000004L1440 383.55L273.87000000000006 0z" fill="rgba(255, 255, 255, .025)"></path><path d="M0 560L17.21 560L0 481.4z" fill="rgba(0, 0, 0, .1)"></path><path d="M0 481.4L17.21 560L152.35 560L0 405.34z" fill="rgba(0, 0, 0, .075)"></path><path d="M0 405.34000000000003L152.35 560L337.73 560L0 168.35000000000002z" fill="rgba(0, 0, 0, .05)"></path><path d="M0 168.35000000000002L337.73 560L735.8 560L0 94.45000000000002z" fill="rgba(0, 0, 0, .025)"></path></g><defs><mask id="SvgjsMask1030"><rect width="1440" height="560" fill="#ffffff"></rect></mask><linearGradient x1="84.72%" y1="-39.29%" x2="15.28%" y2="139.29%" gradientUnits="userSpaceOnUse" id="SvgjsLinearGradient1031"><stop stop-color="#0e2a47" offset="0"></stop><stop stop-color="#00459e" offset="1"></stop></linearGradient></defs></svg>